<?xml version="1.0" encoding="utf-8"?>
<!-- Generator: Adobe Illustrator 16.0.0, SVG Export Plug-In . SVG Version: 6.00 Build 0)  -->
<svg version="1.2" baseProfile="tiny" id="Layer_1" xmlns="http://www.w3.org/2000/svg" xmlns:xlink="http://www.w3.org/1999/xlink"
	 x="0px" y="0px"   viewBox="0 0 800 800" xml:space="preserve">
<g>
	<path fill="#706D6E" d="M775.729,392.361v-13.215h-16.41v-20.546l-0.553,0.17l-15.416,4.716l-0.305,0.093v15.567h-24.326v-8.672
		c0-4.038,0.902-7.128,2.68-9.189c1.768-2.037,4.297-3.071,7.52-3.071c2.318,0,4.719,0.547,7.133,1.623l0.605,0.269v-13.917
		l-0.285-0.105c-2.256-0.809-5.314-1.217-9.115-1.217c-4.783,0-9.137,1.042-12.93,3.106c-3.795,2.066-6.781,5.019-8.869,8.771
		c-2.086,3.748-3.145,8.075-3.145,12.866v9.536h-11.43v13.215h11.43v55.674h16.406v-55.674h24.326v35.379
		c0,14.573,6.875,21.956,20.43,21.956c2.227,0,4.57-0.263,6.967-0.774c2.434-0.522,4.096-1.047,5.07-1.608l0.217-0.126v-13.337
		l-0.668,0.441c-0.891,0.594-1.998,1.076-3.299,1.438c-1.305,0.366-2.396,0.549-3.24,0.549c-3.178,0-5.525-0.853-6.982-2.543
		c-1.475-1.704-2.221-4.683-2.221-8.851v-32.525H775.729L775.729,392.361z M654.25,436.284c-5.953,0-10.648-1.977-13.957-5.864
		c-3.326-3.911-5.016-9.482-5.016-16.563c0-7.306,1.689-13.022,5.02-17c3.309-3.954,7.957-5.958,13.82-5.958
		c5.689,0,10.215,1.915,13.455,5.696c3.266,3.802,4.916,9.473,4.916,16.861c0,7.481-1.555,13.229-4.621,17.071
		C664.82,434.344,660.242,436.284,654.25,436.284 M654.979,377.486c-11.355,0-20.381,3.327-26.813,9.892
		c-6.432,6.566-9.691,15.652-9.691,27.01c0,10.785,3.184,19.46,9.461,25.782c6.275,6.322,14.814,9.525,25.383,9.525
		c11.014,0,19.855-3.376,26.285-10.028c6.432-6.653,9.688-15.652,9.688-26.743c0-10.953-3.057-19.694-9.088-25.973
		C674.168,380.668,665.682,377.486,654.979,377.486 M592.025,377.486c-7.725,0-14.119,1.976-19,5.873
		c-4.912,3.92-7.402,9.062-7.402,15.283c0,3.234,0.535,6.106,1.596,8.545c1.064,2.443,2.713,4.597,4.898,6.402
		c2.174,1.791,5.529,3.669,9.975,5.576c3.736,1.538,6.521,2.842,8.293,3.865c1.73,1.004,2.959,2.016,3.652,2.999
		c0.672,0.961,1.014,2.28,1.014,3.903c0,4.629-3.463,6.88-10.596,6.88c-2.646,0-5.662-0.549-8.967-1.642
		c-3.309-1.088-6.4-2.651-9.188-4.658l-0.678-0.484v15.792l0.246,0.116c2.324,1.07,5.25,1.976,8.697,2.686
		c3.443,0.711,6.57,1.074,9.289,1.074c8.385,0,15.135-1.985,20.063-5.906c4.961-3.946,7.475-9.21,7.475-15.648
		c0-4.644-1.352-8.623-4.02-11.839c-2.65-3.185-7.244-6.106-13.654-8.692c-5.111-2.051-8.383-3.753-9.73-5.057
		c-1.301-1.263-1.961-3.047-1.961-5.309c0-2.001,0.814-3.608,2.488-4.908c1.688-1.306,4.037-1.971,6.979-1.971
		c2.732,0,5.533,0.433,8.313,1.277c2.779,0.848,5.221,1.979,7.262,3.367l0.67,0.458v-14.983l-0.258-0.111
		c-1.881-0.806-4.361-1.494-7.373-2.055C597.109,377.765,594.391,377.486,592.025,377.486 M522.854,436.284
		c-5.951,0-10.646-1.977-13.955-5.864c-3.328-3.911-5.012-9.482-5.012-16.563c0-7.306,1.684-13.022,5.018-17
		c3.305-3.954,7.953-5.958,13.816-5.958c5.689,0,10.215,1.915,13.459,5.696c3.26,3.802,4.914,9.473,4.914,16.861
		c0,7.481-1.555,13.229-4.623,17.071C533.426,434.344,528.846,436.284,522.854,436.284 M523.586,377.486
		c-11.363,0-20.385,3.327-26.813,9.892c-6.432,6.566-9.693,15.652-9.693,27.01c0,10.79,3.184,19.46,9.461,25.782
		c6.275,6.322,14.816,9.525,25.385,9.525c11.008,0,19.855-3.376,26.283-10.028c6.428-6.653,9.688-15.652,9.688-26.743
		c0-10.953-3.057-19.694-9.088-25.973C542.773,380.668,534.285,377.486,523.586,377.486 M462.18,391.075v-11.932h-16.207v68.888
		h16.207v-35.236c0-5.993,1.357-10.916,4.035-14.635c2.65-3.673,6.176-5.533,10.48-5.533c1.461,0,3.1,0.241,4.875,0.715
		c1.758,0.473,3.029,0.987,3.779,1.527l0.68,0.494v-16.337l-0.264-0.113c-1.506-0.641-3.641-0.963-6.342-0.963
		c-4.074,0-7.719,1.307-10.84,3.882c-2.738,2.266-4.719,5.371-6.234,9.242H462.18z M416.953,377.486
		c-7.434,0-14.063,1.594-19.705,4.735c-5.654,3.15-10.023,7.647-12.998,13.364c-2.96,5.705-4.462,12.368-4.462,19.799
		c0,6.507,1.458,12.482,4.339,17.742c2.881,5.275,6.961,9.4,12.125,12.262c5.156,2.859,11.117,4.308,17.716,4.308
		c7.701,0,14.273-1.541,19.547-4.577l0.213-0.119v-14.849l-0.682,0.498c-2.389,1.738-5.057,3.127-7.93,4.129
		c-2.861,0.998-5.475,1.506-7.762,1.506c-6.359,0-11.465-1.992-15.168-5.914c-3.714-3.927-5.598-9.443-5.598-16.384
		c0-6.983,1.963-12.639,5.834-16.813c3.855-4.162,8.971-6.271,15.197-6.271c5.328,0,10.518,1.802,15.428,5.364l0.68,0.493v-15.642
		l-0.223-0.124c-1.846-1.034-4.363-1.887-7.496-2.536C422.896,377.81,419.85,377.486,416.953,377.486 M368.627,379.146h-16.205
		v68.886h16.205V379.146z M360.69,349.798c-2.666,0-4.994,0.907-6.903,2.707c-1.918,1.805-2.893,4.075-2.893,6.757
		c0,2.638,0.961,4.868,2.861,6.624c1.889,1.752,4.221,2.64,6.935,2.64c2.713,0,5.054-0.888,6.965-2.637
		c1.923-1.758,2.9-3.988,2.9-6.626c0-2.586-0.95-4.837-2.82-6.684C365.868,350.733,363.498,349.798,360.69,349.798 M320.259,374.063
		v73.968h16.538v-96.124h-22.888l-29.094,71.399l-28.233-71.399h-23.82v96.124h15.54v-73.975h0.535l29.813,73.975h11.729
		l29.347-73.968H320.259L320.259,374.063z"/>
	<rect x="24.272" y="319.785" fill="#F1511B" width="76.23" height="76.232"/>
	<rect x="108.44" y="319.785" fill="#80CC28" width="76.231" height="76.232"/>
	<rect x="24.272" y="403.984" fill="#00ADEF" width="76.229" height="76.23"/>
	<rect x="108.44" y="403.984" fill="#FBBC09" width="76.231" height="76.23"/>
</g>
</svg>
